<svg xmlns="http://www.w3.org/2000/svg" viewBox="0 0 392 392" width="392" height="392">
<g fill="none" stroke-linecap="round" stroke-linejoin="round">
<path d="M 178.544 29.915 A 167.000 167.000 0 0 0 178.544 362.085" stroke="#FFFFFF" stroke-width="20"/>
<path d="M 213.456 29.915 A 167.000 167.000 0 0 1 213.456 362.085" stroke="#FFFFFF" stroke-width="20"/>
<line x1="171.039" y1="188.724" x2="51.993" y2="154.026" stroke="#FFFFFF" stroke-width="4"/>
<circle cx="51.993" cy="154.026" r="4" fill="#FFFFFF"/>
<circle cx="107.675" cy="170.256" r="3" fill="#FFFFFF" opacity="0.95"/>
<circle cx="82.714" cy="162.980" r="3" fill="#FFFFFF" opacity="0.95"/>
<line x1="174.011" y1="182.126" x2="69.141" y2="115.958" stroke="#FFFFFF" stroke-width="4"/>
<circle cx="69.141" cy="115.958" r="4" fill="#FFFFFF"/>
<line x1="178.021" y1="177.219" x2="92.273" y2="87.645" stroke="#FFFFFF" stroke-width="4"/>
<circle cx="92.273" cy="87.645" r="4" fill="#FFFFFF"/>
<line x1="183.098" y1="173.427" x2="121.568" y2="65.770" stroke="#FFFFFF" stroke-width="4"/>
<circle cx="121.568" cy="65.770" r="4" fill="#FFFFFF"/>
<circle cx="150.348" cy="116.126" r="3" fill="#FFFFFF" opacity="0.95"/>
<line x1="188.290" y1="171.169" x2="151.519" y2="52.747" stroke="#FFFFFF" stroke-width="4"/>
<circle cx="151.519" cy="52.747" r="4" fill="#FFFFFF"/>
<line x1="189.600" y1="221.200" x2="159.077" y2="341.385" stroke="#FFFFFF" stroke-width="4"/>
<circle cx="159.077" cy="341.385" r="4" fill="#FFFFFF"/>
<circle cx="166.954" cy="310.369" r="3" fill="#FFFFFF" opacity="0.95"/>
<line x1="179.904" y1="216.418" x2="103.136" y2="313.798" stroke="#FFFFFF" stroke-width="4"/>
<circle cx="103.136" cy="313.798" r="4" fill="#FFFFFF"/>
<circle cx="139.043" cy="268.249" r="3" fill="#FFFFFF" opacity="0.95"/>
<line x1="175.723" y1="212.274" x2="79.017" y2="289.889" stroke="#FFFFFF" stroke-width="4"/>
<circle cx="79.017" cy="289.889" r="4" fill="#FFFFFF"/>
<line x1="173.540" y1="209.098" x2="66.425" y2="271.566" stroke="#FFFFFF" stroke-width="4"/>
<circle cx="66.425" cy="271.566" r="4" fill="#FFFFFF"/>
<line x1="171.686" y1="205.212" x2="55.730" y2="249.144" stroke="#FFFFFF" stroke-width="4"/>
<circle cx="55.730" cy="249.144" r="4" fill="#FFFFFF"/>
<circle cx="109.968" cy="228.595" r="3" fill="#FFFFFF" opacity="0.95"/>
<line x1="170.020" y1="197.021" x2="46.116" y2="201.889" stroke="#FFFFFF" stroke-width="4"/>
<circle cx="46.116" cy="201.889" r="4" fill="#FFFFFF"/>
<circle cx="78.091" cy="200.633" r="3" fill="#FFFFFF" opacity="0.95"/>
<line x1="203.710" y1="171.169" x2="240.481" y2="52.747" stroke="#FFFFFF" stroke-width="4"/>
<circle cx="240.481" cy="52.747" r="4" fill="#FFFFFF"/>
<circle cx="223.282" cy="108.138" r="3" fill="#FFFFFF" opacity="0.95"/>
<circle cx="230.992" cy="83.308" r="3" fill="#FFFFFF" opacity="0.95"/>
<line x1="208.506" y1="173.205" x2="268.148" y2="64.491" stroke="#FFFFFF" stroke-width="4"/>
<circle cx="268.148" cy="64.491" r="4" fill="#FFFFFF"/>
<line x1="213.482" y1="176.754" x2="296.855" y2="84.967" stroke="#FFFFFF" stroke-width="4"/>
<circle cx="296.855" cy="84.967" r="4" fill="#FFFFFF"/>
<line x1="217.867" y1="181.935" x2="322.156" y2="114.854" stroke="#FFFFFF" stroke-width="4"/>
<circle cx="322.156" cy="114.854" r="4" fill="#FFFFFF"/>
<circle cx="273.376" cy="146.230" r="3" fill="#FFFFFF" opacity="0.95"/>
<line x1="220.897" y1="188.507" x2="339.636" y2="152.771" stroke="#FFFFFF" stroke-width="4"/>
<circle cx="339.636" cy="152.771" r="4" fill="#FFFFFF"/>
<line x1="221.980" y1="197.021" x2="345.884" y2="201.889" stroke="#FFFFFF" stroke-width="4"/>
<circle cx="345.884" cy="201.889" r="4" fill="#FFFFFF"/>
<circle cx="313.909" cy="200.633" r="3" fill="#FFFFFF" opacity="0.95"/>
<line x1="220.149" y1="205.634" x2="335.321" y2="251.584" stroke="#FFFFFF" stroke-width="4"/>
<circle cx="335.321" cy="251.584" r="4" fill="#FFFFFF"/>
<circle cx="281.450" cy="230.091" r="3" fill="#FFFFFF" opacity="0.95"/>
<line x1="216.277" y1="212.274" x2="312.983" y2="289.889" stroke="#FFFFFF" stroke-width="4"/>
<circle cx="312.983" cy="289.889" r="4" fill="#FFFFFF"/>
<line x1="211.556" y1="216.833" x2="285.749" y2="316.188" stroke="#FFFFFF" stroke-width="4"/>
<circle cx="285.749" cy="316.188" r="4" fill="#FFFFFF"/>
<line x1="206.263" y1="219.889" x2="255.212" y2="333.819" stroke="#FFFFFF" stroke-width="4"/>
<circle cx="255.212" cy="333.819" r="4" fill="#FFFFFF"/>
<circle cx="232.316" cy="280.529" r="3" fill="#FFFFFF" opacity="0.95"/>
<line x1="201.295" y1="221.455" x2="226.546" y2="342.857" stroke="#FFFFFF" stroke-width="4"/>
<circle cx="226.546" cy="342.857" r="4" fill="#FFFFFF"/>
<circle cx="220.030" cy="311.527" r="3" fill="#FFFFFF" opacity="0.95"/>
</g>
<circle cx="196.000" cy="196.000" r="22.200" fill="#FFFFFF"/>
</svg>